<?xml version="1.0" encoding="UTF-8" standalone="no"?>
<!-- Created with Inkscape (http://www.inkscape.org/) -->

<svg
   xmlns:dc="http://purl.org/dc/elements/1.1/"
   xmlns:cc="http://creativecommons.org/ns#"
   xmlns:rdf="http://www.w3.org/1999/02/22-rdf-syntax-ns#"
   xmlns:svg="http://www.w3.org/2000/svg"
   xmlns="http://www.w3.org/2000/svg"
   xmlns:sodipodi="http://sodipodi.sourceforge.net/DTD/sodipodi-0.dtd"
   xmlns:inkscape="http://www.inkscape.org/namespaces/inkscape"
   id="svg3263"
   sodipodi:version="0.32"
   inkscape:version="0.47 r22583"
   width="1119.8018"
   height="356.14801"
   xml:space="preserve"
   sodipodi:docname="Aktia.svg"
   version="1.0"
   inkscape:output_extension="org.inkscape.output.svg.inkscape"><metadata
     id="metadata3268"><rdf:RDF><cc:Work
         rdf:about=""><dc:format>image/svg+xml</dc:format><dc:type
           rdf:resource="http://purl.org/dc/dcmitype/StillImage" /><dc:title></dc:title></cc:Work></rdf:RDF></metadata><defs
     id="defs3266"><inkscape:perspective
       sodipodi:type="inkscape:persp3d"
       inkscape:vp_x="0 : 526.18109 : 1"
       inkscape:vp_y="0 : 1000 : 0"
       inkscape:vp_z="744.09448 : 526.18109 : 1"
       inkscape:persp3d-origin="372.04724 : 350.78739 : 1"
       id="perspective3270" /></defs><sodipodi:namedview
     inkscape:window-height="895"
     inkscape:window-width="1387"
     inkscape:pageshadow="2"
     inkscape:pageopacity="0.0"
     guidetolerance="10.0"
     gridtolerance="10.0"
     objecttolerance="10.0"
     borderopacity="1.0"
     bordercolor="#666666"
     pagecolor="#ffffff"
     id="base"
     showgrid="false"
     inkscape:zoom="0.24949495"
     inkscape:cx="-259.41265"
     inkscape:cy="-281.82233"
     inkscape:window-x="358"
     inkscape:window-y="142"
     inkscape:current-layer="g3272"
     inkscape:window-maximized="0" /><g
     id="g3272"
     inkscape:groupmode="layer"
     inkscape:label="AKTIA_CMYK"
     transform="matrix(1.25,0,0,-1.25,-613.66016,871.8259)"><g
       id="g3286"
       style="fill:#009430;fill-opacity:1"
       transform="matrix(3.1603297,0,0,3.1603297,-49.009362,-101.60273)"><g
         transform="matrix(0.1,0,0,0.1,169.943,161.927)"
         id="g3274"
         style="fill:#009430;fill-opacity:1"><path
           id="path3276"
           style="fill:#009430;fill-opacity:1;fill-rule:evenodd;stroke:none"
           d="M 761.961,21.0039 451.293,873.82 316.066,873.82 9.05469,21.0039 l 132.79331,0 70.66,202.2421 341.125,0 71.879,-202.2421 136.449,0 z m -247.313,316.7581 -263.152,0 68.223,194.929 c 21.929,63.356 52.386,160.817 62.133,197.368 9.75,-36.551 43.859,-135.231 64.57,-196.149 l 68.226,-196.148" /><path
           id="path3278"
           style="fill:#009430;fill-opacity:1;fill-rule:nonzero;stroke:none"
           d="m 1412.59,21.0039 -192.49,425.1911 162.03,214.418 -142.54,0 -132.79,-186.398 c -20.71,-30.457 -53.61,-79.192 -70.67,-104.777 0,31.679 1.22,97.464 1.22,136.449 l 0,403.261 -125.483,-65.785 0,-822.3591 125.483,0 0,188.8401 97.47,129.14 141.32,-317.9801 136.45,0" /><path
           id="path3280"
           style="fill:#009430;fill-opacity:1;fill-rule:nonzero;stroke:none"
           d="m 1860.83,147.707 c -23.15,-13.402 -59.7,-25.582 -92.59,-25.582 -46.3,0 -65.79,17.055 -65.79,76.754 l 0,347.215 158.38,0 0,114.519 -158.38,0 0,248.535 -123.05,-65.785 0,-182.75 -91.37,0 0,-114.519 91.37,0 0,-369.149 c 0,-114.5153 54.82,-169.34344 143.76,-169.34344 49.95,0 92.59,12.18364 123.05,29.23824 l 14.62,110.8672" /><path
           id="path3282"
           style="fill:#009430;fill-opacity:1;fill-rule:evenodd;stroke:none"
           d="m 2181.13,823.871 c 0,45.074 -36.55,81.625 -80.41,81.625 -45.08,0 -81.63,-36.551 -81.63,-81.625 0,-43.863 36.55,-80.41 81.63,-80.41 43.86,0 80.41,36.547 80.41,80.41 z m -18.27,-802.8671 0,639.6091 -125.49,0 0,-639.6091 125.49,0" /><path
           id="path3284"
           style="fill:#009430;fill-opacity:1;fill-rule:evenodd;stroke:none"
           d="m 2843.7,21.0039 0,438.5901 c 0,144.98 -97.46,214.422 -240,214.422 -90.15,0 -158.38,-19.493 -219.29,-57.258 l 48.73,-95.031 c 49.95,28.023 101.11,40.207 166.9,40.207 77.98,0 120.62,-38.989 120.62,-108.43 l 0,-47.516 c -35.34,15.84 -82.85,24.367 -142.55,24.367 -144.97,0 -254.62,-64.57 -254.62,-207.109 0,-157.164 118.17,-215.64444 221.73,-215.64444 69.44,0 131.58,32.89454 175.44,76.75394 l 0,-63.3516 123.04,0 z M 2720.66,202.531 c -29.25,-40.203 -87.72,-81.625 -154.73,-81.625 -82.84,0 -123.05,42.641 -123.05,105.992 0,58.477 51.17,95.028 131.58,95.028 68.22,0 112.08,-10.965 146.2,-28.02 l 0,-91.375" /></g></g></g></svg>