<?xml version="1.0" encoding="UTF-8" standalone="no"?>
<!-- Created with Inkscape (http://www.inkscape.org/) -->
<svg
   xmlns:svg="http://www.w3.org/2000/svg"
   xmlns="http://www.w3.org/2000/svg"
   version="1.0"
   width="795.79602"
   height="148.78"
   viewBox="0 0 795.796 148.78"
   id="Layer_1"
   xml:space="preserve"><defs
   id="defs26" />
<g
   id="g3">
	<g
   id="g5">
		<polyline
   fill="#CC2229"
   points="519.454,0 510.77,40.576 498.351,40.576 497.088,27.052 473.392,27.052 466.618,61.463     490.628,61.463 485.612,88.511 461.567,88.511 455.248,121.728 477.648,121.728 484.148,107.651 498.919,107.651 491.007,148.772     425.072,148.78 416.928,135.966 437.968,27.052 427.99,27.052 433.076,0 519.454,0   "
   id="polyline7"
   style="fill:#cc2229" />
		<path
   d="M 142.411,0 L 137.394,27.052 L 129.089,27.052 L 111.714,121.727 C 111.549,121.727 130.03,121.727 130.03,121.727 L 136.522,107.651 L 150.226,107.651 L 142.318,148.772 L 81.057,148.78 L 72.932,135.966 L 93.851,27.052 L 84.925,27.052 L 89.662,0 L 142.411,0"
   style="fill:#cc2229"
   id="path9" />
		<path
   d="M 153.585,40.649 L 161.549,0 L 251.28,0 L 243.091,40.649 L 231.087,40.649 L 229.99,27.052 L 219.619,27.052 L 202.351,121.727 L 216.281,121.727 L 211.171,148.509 L 151.626,148.509 L 156.772,121.727 L 166.099,121.727 L 183.642,27.052 C 183.659,27.056 172.838,27.052 172.838,27.052 L 166.416,40.575 L 153.585,40.649"
   style="fill:#cc2229"
   id="path11" />
		<polyline
   fill="#CC2229"
   points="544.208,148.78 500.963,148.78 506.318,121.728 514.996,121.728 532.784,27.052 523.437,27.052     529.108,0 571.865,0 559.999,61.463 580.058,61.463 591.204,0 634.09,0 628.784,27.052 620.475,27.052 602.459,121.728     612.025,121.728 607.164,148.78 562.743,148.772 574.307,88.53 555.357,88.53 544.208,148.78   "
   id="polyline13"
   style="fill:#cc2229" />
		<polyline
   fill="#CC2229"
   points="49.329,121.728 58.055,121.728 52.499,148.772 0,148.772 5.013,121.728 13.511,121.728     31.938,27.052 22.859,27.052 28.185,0 80.445,0 75.668,27.052 67.453,27.052 49.329,121.728   "
   id="polyline15"
   style="fill:#cc2229" />
		<path
   d="M 406.127,0 L 401.107,27.052 L 391.722,27.052 L 374.347,121.727 C 374.189,121.727 392.667,121.727 392.667,121.727 L 399.162,107.651 L 412.877,107.651 L 404.971,148.772 L 343.698,148.78 L 335.572,135.966 L 356.488,27.052 L 347.566,27.052 L 352.303,0 L 406.127,0"
   style="fill:#cc2229"
   id="path17" />
		<path
   d="M 635.504,40.649 L 643.457,0 L 733.939,0 L 725.744,40.649 L 713.734,40.649 L 712.648,27.052 L 701.522,27.052 L 684.254,121.727 L 694.8,121.727 L 689.694,148.509 L 632.471,148.509 L 637.617,121.727 L 648.017,121.727 L 665.547,27.052 C 665.566,27.056 654.743,27.052 654.743,27.052 L 648.315,40.575 L 635.504,40.649"
   style="fill:#cc2229"
   id="path19" />
		<polyline
   fill="#CC2229"
   points="764.688,121.728 773.411,121.728 767.845,148.772 715.357,148.772 720.368,121.728     728.861,121.728 747.289,27.052 738.204,27.052 743.534,0 795.796,0 791.016,27.052 782.809,27.052 764.688,121.728   "
   id="polyline21"
   style="fill:#cc2229" />
		<path
   d="M 275.542,78.169 L 295.335,78.169 L 305.411,28.063 L 285.348,28.063 L 275.542,78.169 M 281.861,148.608 L 290.322,105.454 L 270.362,105.326 L 262.205,148.684 L 220.96,148.78 L 225.659,121.728 L 236.875,121.728 L 256.828,20.155 L 276.527,0 L 323.783,0 L 338.154,18.515 L 318.245,121.727 L 327.855,121.727 L 322.787,148.521 L 281.861,148.608 z "
   style="fill:#cc2229;fill-rule:evenodd"
   id="path23" />
	</g>
</g>
</svg>