<?xml version="1.0" encoding="utf-8"?>
<!-- Generator: Adobe Illustrator 17.1.0, SVG Export Plug-In . SVG Version: 6.00 Build 0)  -->
<!DOCTYPE svg PUBLIC "-//W3C//DTD SVG 1.0//EN" "http://www.w3.org/TR/2001/REC-SVG-20010904/DTD/svg10.dtd">
<svg version="1.0" id="Layer_1" xmlns="http://www.w3.org/2000/svg" xmlns:xlink="http://www.w3.org/1999/xlink" x="0px" y="0px"
	 viewBox="0 0 960 196" enable-background="new 0 0 960 196" xml:space="preserve" preserveAspectRatio="xMinYMid">
<g>
	<rect fill="#DA2128" width="960" height="196"/>
	<g>
		<path fill="#FFFFFF" d="M922,44.309c0,3.863-3.007,19.922-5.755,29.667c-1.052,3.855-2.867,5.449-6.013,5.449
			c-3.299,0-4.368-2.264-4.423-8.316c-0.153-12.183-0.589-19.489-9.054-19.489c-1.705,0-2.693,0.721-3.015,2.43
			c-2.727,14.914-6.302,37.966-12.764,83.425c-0.115,1.018-0.263,2.303-0.263,3.151c0,4.741,0.098,5.835,2.862,7.315
			c1.857,0.992,2.718,2.311,2.718,4.435c0,3.443-3.579,4.478-6.45,4.478c-3.736,0-7.739-0.742-15.902-0.742
			c-7.921,0-11.348,0.742-15.631,0.742c-5.318,0-6.594-1.883-6.594-4.622c0-2.273,1.12-3.638,2.99-4.431
			c3.142-1.281,4.987-2.014,6.195-8.464c5.526-29.811,11.356-77.959,12.018-82.416c0.5-3.291,0-5.301-2.019-5.301
			c-10.877,0-11.869,8.6-14.901,19.201c-1.997,7.078-4.728,8.452-7.306,8.452c-3.732,0-4.444-2.133-4.444-6.297
			c0-3.295,4.156-25.227,5.025-29.099c0.763-3.43,1.582-5.309,6.866-5.309c4.448,0,5.318,1.442,9.486,1.442h50.594
			c4.152,0,6.751-1.582,10.025-1.582C921.139,38.427,922,41.01,922,44.309"/>
		<path fill="#FFFFFF" d="M762.144,44.586c0,2.735-1.569,3.728-4.3,4.881c-1.79,0.746-3.558,1.302-4.444,6.162
			c-7.294,39.968-12.612,83.858-12.612,86.86c0,3.151,0.717,4.453,3.282,5.598c1.582,0.695,2.587,1.87,2.587,4.147
			c0,3.036-2.426,4.622-6.883,4.622c-3.677,0-8.027-0.598-14.906-0.598c-7.743,0-12.179,0.598-16.199,0.598
			c-6.17,0-6.734-2.315-6.734-4.478c0-2.129,1.124-3.719,4.139-5.161c2.15-1.001,3.766-1.845,5.029-8.019
			c1.87-9.164,6.603-39.853,9.457-61.506h-0.297c-19.494,43.152-25.079,58.499-25.079,58.499c-0.611,1.408-1.717,3.439-3.588,3.439
			h-6.013c-1.306,0-2.188-0.856-2.578-3.155l-9.605-57.914h-0.437c-5.309,38.988-6.586,49.458-6.586,49.458
			c-0.581,4.334-1.196,13.93-1.196,14.469c0,3.736,1.141,4.711,2.773,5.309c1.582,0.581,3.138,1.722,3.138,4.58
			c0,3.007-2.421,4.478-6.153,4.478c-1.976,0-4.728-0.539-8.736-0.539c-4.737,0-6.174,0.539-8.464,0.539
			c-4.597,0-6.323-1.734-6.323-4.19c0-3.435,2.125-4.499,4.177-5.156c3.147-0.992,4.47-4.139,5.441-8.876
			c3.897-18.909,11.178-79.57,11.606-83.005c0.585-4.588-0.53-5.563-3.286-6.747c-2.739-1.132-3.732-2.858-3.732-4.72
			c0-2.727,2.15-4.444,6.162-4.444c3.918,0,8.032,0.852,14.923,0.852c5.14,0,8.222-0.852,10.86-0.852
			c5.182,0,7.162,1.446,7.904,6.306l6.594,42.86h0.297c10.449-22.649,18.345-42.431,18.345-42.431
			c1.925-4.419,3.443-6.734,9.028-6.734c3.036,0,7.468,0.844,13.621,0.844c5.737,0,9.346-0.844,11.895-0.844
			C760.575,39.718,762.144,41.435,762.144,44.586"/>
		<path fill="#FFFFFF" d="M571.893,44.162c0,3.011-1.433,4.143-4.728,5.441c-2.875,1.141-3.299,2.574-4.448,9.032
			c-4.728,26.652-14.193,91.881-14.193,91.881c-0.84,5.436-1.87,6.336-5.441,6.336h-6.17c-2.006,0-3.952-1.293-5.585-5.903
			l-25.66-72.234h-0.577c-4.016,28.514-6.314,46.01-6.314,46.01c-0.789,5.754-1.433,16.335-1.433,17.471
			c0,3.443,1.289,4.609,3.015,5.449c1.781,0.907,3.431,1.586,3.431,4.584c0,3.299-2.714,4.622-6.446,4.622
			c-2.171,0-4.724-0.53-8.744-0.53c-5.169,0-7.145,0.53-9.461,0.53c-3.872,0-5.733-1.582-5.733-4.474c0-2.566,1.281-4.143,4.3-5.161
			c2.625-0.865,3.817-3.015,4.868-7.735c2.828-12.624,10.177-64.508,11.899-79.698c0.271-2.438,0.432-5.453,0.432-6.874
			c0-2.014-1.009-2.998-2.587-3.592c-3.719-1.408-4.58-3.151-4.58-5.301c0-3.011,2.298-4.304,5.309-4.304
			c3.571,0,8.15,0.772,12.891,0.772c4.287-0.004,7.315-0.772,11.335-0.772c3.142,0,4.245,0.882,6.022,5.877l19.078,53.753h0.416
			c0.882-5.458,3.558-25.079,3.558-25.079c0.81-5.763,1.603-16.216,1.603-19.07c0-3.868-1.221-5.148-2.587-5.733
			c-1.997-0.856-3.867-1.857-3.867-4.588c0-3.151,2.294-5.161,6.747-5.161c2.057,0,6.433,0.784,9.168,0.789
			c2.892,0.004,6.679-0.789,8.46-0.789C569.748,39.713,571.893,40.867,571.893,44.162"/>
		<path fill="#FFFFFF" d="M401.293,48.887c-0.331,3.872-2.578,13.909-4.885,21.793c-0.78,2.676-2.286,4.02-5.017,4.02
			c-3.007,0-5.025-1.87-4.894-5.313c0.089-2.718,0.45-5.432,0.45-10.165c0-4.16-5.012-9.613-13.909-9.613
			c-8.167,0-13.909,4.3-13.909,11.606c0,6.314,2.718,9.601,6.467,13.913c5.725,6.59,8.6,9.749,15.478,17.34
			c6.471,7.145,12.76,16.767,12.76,31.525c0,18.353-15.622,34.009-40.862,34.009c-13.621,0-23.226-4.889-27.954-7.196
			c-2.086-0.997-3.265-2.443-2.867-5.572c0.28-2.303,3.151-14.206,6.009-23.226c1.259-3.94,2.735-6.03,6.318-6.03
			c2.574,0,4.156,1.569,4.156,5.157c0,2.18-0.348,5.068-0.568,9.321c-0.229,4.308-1.013,15.045,16.335,15.045
			c7.896,0,13.337-5.152,13.337-11.891c0-5.152-0.908-10.385-7.167-17.051c-4.44-4.737-7.612-8.155-12.616-13.769
			c-9.605-10.75-13.477-18.497-13.477-30.816c0-21.932,17.353-33.976,39.281-33.976c11.471,0,18.065,2.578,22.649,4.444
			C400.101,43.946,401.577,45.452,401.293,48.887"/>
		<path fill="#FFFFFF" d="M328.747,71.402c0,3.583-0.738,8.456-1.862,12.031c-1.756,5.589-3.876,7.315-7.323,7.315
			c-2.434,0-4.584-0.276-6.009-0.276c-3.74,0-5.589,1.421-7.608,3.431c-2.286,2.298-3.583,2.731-5.305,2.731
			c-1.857,0-2.426-1.297-2.426-4.453c0-2.142,0.42-5.449,1.281-9.757c1.09-5.449,3.295-10.737,6.738-10.737
			c2.01,0,3.159,0.713,6.734,0.713c5.309,0,7.298-1.149,8.744-2.718c1.862-2.023,2.735-2.731,4.737-2.731
			C328.031,66.949,328.747,68.82,328.747,71.402"/>
		<path fill="#FFFFFF" d="M327.447,101.505c0,3.583-0.746,8.452-1.857,12.039c-1.747,5.568-3.88,7.302-7.311,7.302
			c-2.426,0-4.588-0.293-6.022-0.293c-3.728,0-5.593,1.455-7.595,3.439c-2.298,2.307-3.592,2.748-5.309,2.748
			c-1.862,0-2.434-1.302-2.434-4.465c0-2.129,0.424-5.436,1.285-9.741c1.098-5.462,3.299-10.746,6.734-10.746
			c2.019,0,3.168,0.708,6.751,0.708c5.301,0,7.294-1.145,8.748-2.718c1.849-2.014,2.705-2.718,4.72-2.718
			C326.726,97.061,327.447,98.918,327.447,101.505"/>
		<path fill="#FFFFFF" d="M242.578,44.309c0,3.863-3.011,19.922-5.729,29.667c-1.077,3.855-2.867,5.449-6.022,5.449
			c-3.303,0-4.38-2.264-4.448-8.316c-0.144-12.183-0.568-19.489-9.028-19.489c-1.722,0-2.697,0.721-3.015,2.43
			c-2.727,14.914-6.302,37.966-12.76,83.425c-0.14,1.018-0.284,2.303-0.284,3.151c0,4.741,0.093,5.835,2.871,7.315
			c1.862,0.992,2.722,2.311,2.722,4.435c0,3.443-3.592,4.478-6.45,4.478c-3.727,0-7.739-0.742-15.906-0.742
			c-7.892,0-11.335,0.742-15.635,0.742c-5.309,0-6.598-1.883-6.598-4.622c0-2.273,1.115-3.638,3.007-4.431
			c3.155-1.281,4.966-2.014,6.17-8.464c5.547-29.811,11.377-77.959,12.035-82.416c0.496-3.291,0-5.301-1.997-5.301
			c-10.903,0-11.899,8.6-14.914,19.201c-2.014,7.078-4.728,8.452-7.311,8.452c-3.727,0-4.448-2.133-4.448-6.297
			c0-3.295,4.164-25.227,5.021-29.099c0.763-3.43,2.15-5.309,7.459-5.309c4.007,0,4.156,1.442,8.893,1.442h50.594
			c4.168,0,6.747-1.582,10.046-1.582C241.725,38.427,242.578,41.01,242.578,44.309"/>
		<path fill="#FFFFFF" d="M163.017,123.579c0,3.855-3.588,19.791-6.747,28.946c-1.48,4.359-3.151,5.296-9.461,5.296
			c-4.58,0-16.911-1.705-34.4-1.705c-10.22,0-16.848,0.738-18.213,0.738c-5.309,0-6.603-1.472-6.603-4.622
			c0-2.273,1.124-3.647,3.015-4.435c3.155-1.281,4.868-2.01,6.174-8.464c5.568-27.78,11.64-76.967,12.043-81.415
			c0.594-6.577-0.148-7.451-2.303-8.6c-1.866-1.001-3.007-2.146-3.007-4.444c0-3.007,1.722-5.156,8.464-5.156
			c3.715,0,9.461,0.712,14.185,0.712c6.878,0,9.465-0.712,13.048-0.712c7.311,0,8.748,1.717,8.748,4.588
			c0,2.438-1.438,4.152-3.88,5.012c-2.311,0.818-3.575,1.722-4.44,5.737c-2.867,13.315-6.743,36.838-12.76,82.416
			c-0.127,1.022-0.288,2.303-0.288,3.151c0,2.744,1.289,4.317,4.737,4.317c12.332,0,18.748-11.055,21.928-22.522
			c0.84-3.011,2.578-4.58,5.453-4.58C161.007,117.837,163.017,118.838,163.017,123.579"/>
		<path fill="#FFFFFF" d="M98.36,44.309c0,2.718-1.289,4.029-3.88,5.017c-2.286,0.874-3.583,1.717-4.444,5.729
			c-2.858,13.324-6.734,36.838-12.773,82.42c-0.115,1.022-0.263,2.591-0.263,3.439c0,4.728,0.03,5.699,2.862,7.027
			c2.035,0.95,2.71,2.311,2.71,4.435c0,3.159-2.557,4.478-6.297,4.478c-4.156,0-10.932-0.785-17.352-0.78
			c-5.589,0.013-10.165,0.78-14.333,0.78c-5.301,0-6.59-1.582-6.59-4.622c0-2.273,1.162-3.537,3.002-4.431
			c2.879-1.395,4.902-2.006,6.174-8.464c5.432-27.789,11.64-76.967,12.031-81.411c0.606-6.577-0.148-7.455-2.277-8.6
			c-1.87-1.001-3.028-2.443-3.028-4.737c0-3.007,2.154-4.872,8.456-4.872c3.443,0,7.9,0.721,14.35,0.721
			c6.45,0,9.745-0.721,12.904-0.721C97.203,39.716,98.36,41.298,98.36,44.309"/>
		<path fill="#FFFFFF" d="M834.834,152.235c0,3.151-2.871,4.618-6.895,4.618c-4.003,0-8.159-0.746-13.617-0.746
			c-6.738,0-10.618,0.746-15.05,0.746c-4.732,0-6.883-1.726-6.883-4.618c0-2.714,1.425-4.72,4.894-5.865
			c2.544-0.874,3.473-2.587,3.57-7.035l0.297-13.035c0.042-2.159-0.594-2.443-1.879-2.443H781.36c-2.15,0-2.693,0.751-3.316,2.15
			c-2.434,5.458-5.869,13.193-5.869,17.772c0,1.306,0.568,3.002,2.595,3.872c1.87,0.848,3.13,2.303,3.13,4.584
			c0,2.595-1.561,4.618-6.009,4.618c-2.731,0-5.292-0.534-9.601-0.534c-4.024,0-5.737,0.534-7.892,0.534
			c-3.867,0-5.729-1.582-5.729-4.474c0-2.129,1.293-3.969,3.147-4.584c4.308-1.395,6.234-6.272,7.162-8.46
			c20.138-46.549,32.139-76.398,32.139-76.398c1.221-2.939,2.994-7.446,2.994-8.888c0-2.727-0.869-3.681-2.867-4.584
			c-1.569-0.717-2.426-1.429-2.426-4.012c0-3.299,2.298-4.733,8.731-4.733c13.481,0,17.217-2.154,23.51-2.154
			c4.169,0,5.419,2.082,5.602,8.176c0,0,0.819,55.183,2.858,97.466c0.098,2.154,1.289,2.744,2.731,3.443
			C833.642,148.355,834.834,149.661,834.834,152.235 M800.557,106.089c0,0-0.123-22.229-0.42-35.125h-0.432l-12.628,32.11
			c-0.823,2.12-1.836,4.3-1.836,5.453c0,1.145,0.713,1.442,1.701,1.442h11.191C800.29,109.969,800.6,109.32,800.557,106.089"/>
		<path fill="#FFFFFF" d="M652.481,82.423c0,39.438-23.522,75.58-57.506,75.58c-21.364,0-34.412-16.801-34.412-41.303
			c0-45.735,23.366-78.565,57.061-78.565C641.15,38.135,652.481,53.189,652.481,82.423 M624.031,65.66
			c0-13.761-3.257-16.928-9.995-16.928c-19.061,0-25.308,62.366-25.308,80.003c0,15.27,3.834,18.493,9.83,18.493
			C614.905,147.228,624.031,89.314,624.031,65.66"/>
		<path fill="#FFFFFF" d="M470.955,152.235c0,3.151-2.858,4.618-6.874,4.618c-4.007,0-8.176-0.746-13.621-0.746
			c-6.738,0-10.606,0.746-15.05,0.746c-4.724,0-6.887-1.726-6.887-4.618c0-2.714,1.442-4.72,4.881-5.865
			c2.578-0.874,3.473-2.587,3.579-7.035l0.28-13.035c0.051-2.159-0.568-2.443-1.853-2.443H417.49c-2.154,0-2.667,0.751-3.295,2.15
			c-2.451,5.458-5.886,13.193-5.886,17.772c0,1.306,0.589,3.002,2.587,3.872c1.874,0.848,3.142,2.303,3.142,4.584
			c0,2.595-1.573,4.618-6.022,4.618c-2.714,0-5.292-0.534-9.596-0.534c-4.016,0-5.733,0.534-7.883,0.534
			c-3.872,0-5.742-1.582-5.742-4.474c0-2.129,1.306-3.969,3.163-4.584c4.304-1.395,6.221-6.272,7.171-8.46
			c20.13-46.549,32.114-76.398,32.114-76.398c1.234-2.939,3.002-7.446,3.002-8.888c0-2.727-0.878-3.681-2.875-4.584
			c-1.569-0.717-2.43-1.429-2.43-4.012c0-3.299,2.303-4.733,8.748-4.733c13.477,0,17.204-2.154,23.51-2.154
			c4.152,0,5.411,2.082,5.589,8.176c0,0,0.827,55.183,2.867,97.466c0.11,2.154,1.298,2.744,2.731,3.443
			C469.772,148.355,470.955,149.661,470.955,152.235 M436.696,106.089c0,0-0.14-22.229-0.424-35.125h-0.433l-12.62,32.11
			c-0.827,2.12-1.862,4.3-1.862,5.453c0,1.145,0.717,1.442,1.726,1.442h11.187C436.42,109.969,436.746,109.32,436.696,106.089"/>
		<path fill="#FFFFFF" d="M296.918,152.235c0,3.151-2.871,4.618-6.878,4.618c-4.02,0-8.184-0.746-13.629-0.746
			c-6.734,0-10.61,0.746-15.046,0.746c-4.733,0-6.882-1.726-6.882-4.618c0-2.714,1.429-4.72,4.868-5.865
			c2.578-0.874,3.494-2.587,3.592-7.035l0.284-13.035c0.047-2.159-0.581-2.443-1.862-2.443H243.44c-2.154,0-2.663,0.751-3.299,2.15
			c-2.438,5.458-5.873,13.193-5.873,17.772c0,1.306,0.577,3.002,2.582,3.872c1.87,0.848,3.147,2.303,3.147,4.584
			c0,2.595-1.578,4.618-6.017,4.618c-2.727,0-5.309-0.534-9.613-0.534c-4.012,0-5.733,0.534-7.875,0.534
			c-3.876,0-5.742-1.582-5.742-4.474c0-2.129,1.306-3.969,3.155-4.584c4.304-1.395,6.225-6.272,7.167-8.46
			c20.134-46.549,32.118-76.398,32.118-76.398c1.242-2.939,3.011-7.446,3.011-8.888c0-2.727-0.882-3.681-2.862-4.584
			c-1.59-0.717-2.443-1.429-2.443-4.012c0-3.299,2.294-4.733,8.74-4.733c13.481,0,17.217-2.154,23.518-2.154
			c4.156,0,5.407,2.082,5.589,8.176c0,0,0.823,55.183,2.871,97.466c0.098,2.154,1.289,2.744,2.727,3.443
			C295.726,148.355,296.918,149.661,296.918,152.235 M262.646,106.089c0,0-0.136-22.229-0.424-35.125h-0.424l-12.624,32.11
			c-0.827,2.12-1.862,4.3-1.862,5.453c0,1.145,0.717,1.442,1.726,1.442h11.178C262.366,109.969,262.688,109.324,262.646,106.089"/>
	</g>
</g>
</svg>
