<svg xmlns="http://www.w3.org/2000/svg" viewBox="0 0 500 500"><path fill="#ff3334" d="M250 0C112.2 0 0 112.2 0 250s112.2 250 250 250 250-112.2 250-250S387.8 0 250 0"/><path fill="#fff" d="M413.3 160.3 385 232.1l-22.4-68.9h-36.5l42.3 105.7h31s29.6-59.1 30.6-61.4c7.3-16.2-1.2-38-16.7-47.2m-105.8 86.1c-9.9 0-12.8-8.8-12.8-16v-41.7H320v-25.5h-25.3v-32.1h-2.2c-15.3 0-30.6 12-30.6 32v65.5a70.8 70.8 0 0 0 2 18c4.6 18.3 22.1 26.2 38.5 26.2a52.6 52.6 0 0 0 30.1-9.5l-9.6-22.5c-2.1 1.5-6.9 5.6-15.4 5.6m-97.7-85.7a47.6 47.6 0 0 0-35.9 14.6 35.2 35.2 0 0 0-30.7-14.6c-11.8 0-26.5 7.7-31.7 16.6l-1.5-16.5h-2.2c-14.5.3-29 11.8-29 27.8v80.3h32.9v-56.8c0-6.8 1.9-12.3 5.8-16.7a19.5 19.5 0 0 1 15.2-6.5c5.6 0 9.8 1.7 12.6 5.2s4.2 8.3 4.2 14.6v60.2h31.8v-56.8c0-6.8 1.8-12.3 5.6-16.7s8.9-6.5 15.3-6.5 9.9 1.7 12.7 5.2 4.2 8.3 4.2 14.6v60.2H252v-65.4c0-13.2-3.7-23.6-10.9-31.3s-17.7-11.5-31.3-11.5m-101.4 185-18.8-22.9v22.9H78.8V284h10.8v32.9l16.7-18.5h13.1l-19.1 20.9 21.6 26.4h-13.5m299.4 1.7a25.8 25.8 0 0 1-12.9-3.3 24.6 24.6 0 0 1-9-9.1 25.2 25.2 0 0 1-3.4-12.8 25.3 25.3 0 0 1 12.4-21.7 25.8 25.8 0 0 1 12.9-3.3 24.4 24.4 0 0 1 21.5 12.4 24.3 24.3 0 0 1 3.4 12.6 24.8 24.8 0 0 1-24.9 25.2m-.1-40.4a14.2 14.2 0 0 0-7.5 2.1 13.8 13.8 0 0 0-5.2 5.5 15.7 15.7 0 0 0-2 7.6 16.2 16.2 0 0 0 2 7.8 14 14 0 0 0 5.3 5.5 14.4 14.4 0 0 0 7.4 2 14.7 14.7 0 0 0 7.4-2 14.5 14.5 0 0 0 5.2-5.5 16.6 16.6 0 0 0 0-15.4 14.7 14.7 0 0 0-5.3-5.5 13.2 13.2 0 0 0-7.3-2.1m-134.4 40.4a25.2 25.2 0 0 1-12.8-3.3 24.8 24.8 0 0 1-9.1-9.1 25.2 25.2 0 0 1-3.3-12.8 24.8 24.8 0 0 1 12.4-21.7 25.2 25.2 0 0 1 12.8-3.3 24.3 24.3 0 0 1 12.5 3.3 24.8 24.8 0 0 1 9.1 9.1 25.2 25.2 0 0 1 3.3 12.6 25.7 25.7 0 0 1-3.3 12.8 24.8 24.8 0 0 1-9.1 9.1 24.3 24.3 0 0 1-12.5 3.3m-.1-40.4a13.6 13.6 0 0 0-7.4 2.1 14 14 0 0 0-5.3 5.5 15.6 15.6 0 0 0-1.9 7.6 16.1 16.1 0 0 0 1.9 7.8 15.5 15.5 0 0 0 5.3 5.5 14.9 14.9 0 0 0 7.4 2 14 14 0 0 0 12.6-7.5 16.6 16.6 0 0 0 0-15.4 15.3 15.3 0 0 0-5.2-5.5 13.6 13.6 0 0 0-7.4-2.1m92.7 38.7v-27.3c0-6.4-4.4-11.4-9.9-11.4s-10 5-10 11.4v27.3h-10.3v-27.3c0-6.3-4.5-11.4-10-11.4s-10 5.1-10 11.4v27.3h-10.9v-27.3c0-11.7 9.1-21.2 20.4-21.2a20.1 20.1 0 0 1 15.2 7.1l.2.3.2-.3a20.3 20.3 0 0 1 15.2-7.1c11.3 0 20.4 9.5 20.4 21.2v27.3Zm-167.7-10.1c-1.7.4-3.6.6-5.1-.8s-1.3-1.7-1.3-4.3v-23.7h8.6v-9.6h-8.6V284h-10.7v13.2h-6.6v9.6h6.6v24.9a14.6 14.6 0 0 0 4.6 10.6 14.8 14.8 0 0 0 10.4 4.3 16.2 16.2 0 0 0 5.1-.9m-56.2 1.8a25.2 25.2 0 1 1 25.1-25.2v24.4h-10.6v-5.8a17.1 17.1 0 0 1-5.4 4.6 18 18 0 0 1-9.1 2m-.1-40.5c-8 0-14.6 6.9-14.6 15.4s6.6 15.2 14.6 15.2 14.6-6.5 14.6-15.2-6.6-15.4-14.6-15.4m94.4 14.9a23.2 23.2 0 0 0-10.2-4.9l-4.4-1a17.1 17.1 0 0 1-5.2-1.8 3.5 3.5 0 0 1-1.8-3.3 4.2 4.2 0 0 1 1.8-3.4 7.8 7.8 0 0 1 4.8-1.4 9.2 9.2 0 0 1 5.7 1.8 7.7 7.7 0 0 1 3.1 4.8v.3l9.5-3.7v-.3a15.4 15.4 0 0 0-6-8.5 19.7 19.7 0 0 0-11.9-3.4 18.9 18.9 0 0 0-9 2 15.2 15.2 0 0 0-6.3 5.4 12.9 12.9 0 0 0-2.2 7.4 11.4 11.4 0 0 0 3.5 8.8c2.3 2.2 5.9 3.9 10.6 5l4.7 1.1a16.7 16.7 0 0 1 4.9 1.9 4.1 4.1 0 0 1 1.6 3.6 4.9 4.9 0 0 1-1.9 4.1 8.7 8.7 0 0 1-5.4 1.6 11.3 11.3 0 0 1-7.3-2.5 10.3 10.3 0 0 1-3.5-5.8l-9.5 3.5a16.4 16.4 0 0 0 6.6 10.3 22.9 22.9 0 0 0 13.5 3.9 20.3 20.3 0 0 0 9.4-2.1 16.4 16.4 0 0 0 6.5-5.7 15.5 15.5 0 0 0 2.3-8.1c0-4.1-1.3-7.4-3.9-9.6"/></svg>