<?xml version="1.0" encoding="utf-8"?>
<!-- Generator: Adobe Illustrator 28.0.0, SVG Export Plug-In . SVG Version: 6.00 Build 0)  -->
<svg version="1.1"
	 id="svg2" xmlns:rdf="http://www.w3.org/1999/02/22-rdf-syntax-ns#" xmlns:cc="http://creativecommons.org/ns#" xmlns:dc="http://purl.org/dc/elements/1.1/" xmlns:sodipodi="http://sodipodi.sourceforge.net/DTD/sodipodi-0.dtd" xmlns:inkscape="http://www.inkscape.org/namespaces/inkscape" xmlns:svg="http://www.w3.org/2000/svg" sodipodi:docname="POP Pankki logo.svg"
	 xmlns="http://www.w3.org/2000/svg" xmlns:xlink="http://www.w3.org/1999/xlink" x="0px" y="0px" viewBox="0 0 1375.4 309.1"
	 style="enable-background:new 0 0 1375.4 309.1;" xml:space="preserve">
<style type="text/css">
	.st0{clip-path:url(#SVGID_00000097466814580681258380000011850542836255186855_);}
	.st1{fill:#41D87E;}
</style>
<sodipodi:namedview  bordercolor="#666666" borderopacity="1" gridtolerance="10" guidetolerance="10" id="namedview4" inkscape:current-layer="g10" inkscape:cx="243.49929" inkscape:cy="961.98415" inkscape:pageopacity="0" inkscape:pageshadow="2" inkscape:window-height="705" inkscape:window-maximized="1" inkscape:window-width="1366" inkscape:window-x="-8" inkscape:window-y="-8" inkscape:zoom="0.21024124" objecttolerance="10" pagecolor="#ffffff" showgrid="false">
	</sodipodi:namedview>
<g id="g12">
	<g>
		<defs>
			<rect id="SVGID_1_" x="-105.8" y="-367.1" width="1587.4" height="1122.5"/>
		</defs>
		<clipPath id="SVGID_00000091701118033603992330000009722994945625574293_">
			<use xlink:href="#SVGID_1_"  style="overflow:visible;"/>
		</clipPath>
		<g id="g14" style="clip-path:url(#SVGID_00000091701118033603992330000009722994945625574293_);">
			<g id="g20" transform="translate(1095.5176,473.5713)">
				<path id="path22" inkscape:connector-curvature="0" class="st1" d="M259.3-349.6c0,0-5.2,1.2-5.8,0.5c0.1-0.1,0.3-0.2,0.4-0.3
					c-0.1-0.1-0.3-0.3-0.4-0.4c-0.3-0.4-0.6-0.8-0.9-1.1c-2,0.9-3.8,1.3-5.5,1.3c-1.6,0-3.1-0.6-4.3-1.6c-1,0.5-2.2,0.9-3.6,0.9
					c-1.3,0-2.6-0.4-3.6-1.1c-1.6-0.4-2.9-1.3-3.8-2.7c-0.4-0.6-1.2-2-1.6-3.8c-0.9,0.5-2,0.8-3.1,0.8c-1,0-2-0.2-3-0.7
					c-0.4-0.2-0.9-0.5-1.2-0.7c0,0-0.1,0.1-0.1,0.1c-0.2,0.4-0.4,0.7-0.6,1c-1.2,1.6-3.1,2.5-5.1,2.5c-0.3,0-0.7,0-1-0.1
					c-0.8-0.1-1.9-0.4-3.1-0.9c-0.1,0.1-0.2,0.1-0.3,0.2c-0.1,0.3-0.3,0.6-0.4,0.9c-0.8,3.7-2.8,5.2-4.5,5.8c-0.6,0.2-1.3,0.4-2,0.4
					c-0.1,1-0.5,2-1.3,3.1c-0.6,0.7-1.3,1.3-2.1,1.7c-0.5,2-1.7,3.9-3.4,5.5c-0.5,0.5-1.1,0.9-1.7,1.2c-0.8,2-2,4.4-3.8,7
					c-1.6,2.2-3.7,4.5-6.6,6.8c37.4-2.8,63.7-15.5,75-25.4C262.8-349.7,261.2-348.5,259.3-349.6"/>
			</g>
			<g id="g24" transform="translate(1109.6221,499.2739)">
				<path id="path26" inkscape:connector-curvature="0" class="st1" d="M264-409.6c-2.7,0-2.9-2.2-2.9-2.2s6.1-6.6,4.3-6.4
					c-0.8,0.1-1,0-1,0s0.6-5.9-1.6-5c-2.2,0.9-3,0.7-3,0.7s-1.1-2.1-0.5-2.6c0.7-0.5-3.1-0.4-3.1-0.4s7.9-8.4,4.3-7.6
					c-2,0.5-2.1-0.9-2.1-0.9s1.5-0.8,2.6-1.8c1.4-1.3,2.3-2.8,1.4-2.7c-1.4,0.1-1.9-0.6-1.9-0.6s3.4-7.3,1.5-6.7
					c-4.5,1.8-5.2,0.1-5.2,0.1s1.6-5.7,1.2-6.1c-0.4-0.4-2.3-0.4-1-1.3c1.3-0.9,2.8-3.6,2.6-4c-0.2-0.3-1.5,0.7-0.6-1.1
					c0.9-1.8,1.6-5.1,1.2-5.1c-2.1,0.2-3.2-1.6-3.2-1.6s4.8-4.6,4.5-7.4c0-0.3-5.6-0.5-4.5-1.2c3.6-2.1,5.8-5.7,5.8-6.4
					c0-0.7-2.9-0.3-2.4-0.9c2.6-1.3,1.7-4.9,2.4-6.4c-0.3-0.6-2.4-0.6-2.4-0.6s-0.7-1.9,0.6-3.1c1.7-1.5,2.7-3.8,2.1-3.8
					c-2.7,0,0.1-2.1,0.2-2.4c0.2-0.3,2-2.3,0.9-2.2c-2.6,0-6.9,2.5-6.9,2.5s-0.8-1.3-1.1-0.8c0,0.8-0.5,2.7-1.4,4.2
					c-1.1,1.9-2.7,3.3-2.7,3.3s-1.7-2.3-1.8-1.8c-0.1,0.4-0.6,1.8-1.4,3c-0.9,1.4-2.2,2.6-2.2,2.6s-0.7-1-0.9-0.4
					c0.2,1.1-0.8,2.7-0.8,2.7s-2-2.7-2.2-2.4c-0.4,0.2,0.3-0.1-2,4.2c-0.9,1.8-2.8,2.9-2.8,2.9s-0.9-1.5-1.2-0.9
					c-0.1,2.8-3.1,4.8-3.1,4.8s-2.8-1.9-2.5-2.9c-1.7,0.1-2.7,3-4.5,4.8c-1.9,1.9-3.8,3.1-3.8,3.1c-0.1-0.2-0.5-1.5-1.4-1.5
					c-0.5,2.8-3.5,6-3.5,6s-1.2-3-1.9-2.5c-0.6,0.5-1.8,0.7-1.8,0.7s-0.1-2.1-0.8-2.6c-0.9-0.6-1.1-2.2-1.5-1.7
					c-0.4,0.5-1.4,1.6-2.4,2.3c-1,0.8-2.4,1.2-2.4,1.2c0,0-1.4-2.7-1.6-1.7c-0.1,0.5-0.4,2.7-1,4.1c-0.8,1.8-1.9,2.8-1.9,2.8
					s-2-1.7-1.9-1.2c0,0.2-1.2,1.7-1.5,3.1c-0.3,1.7-2,2.5-2,2.5s-0.1-0.8-0.5-1.5c-0.4-0.7-0.9-1.4-1-1.4c-0.2,0.2-0.5,0.4-0.8,0.6
					c-0.4,0.2-0.8,0.4-0.8,0.4c0-0.9-0.5-2.9-1.5-4.6c-0.8-1.3-2.3-3.5-2.7-2.9c-0.6,0.8-1.1,1.7-1.8,2.3c-1,0.9-2,1.2-2,1.2
					s-0.6-1.2-1.3-0.6c-0.2,1.1-0.3,2.1-0.7,3.1c-0.5,1.2-1.3,2.2-1.5,2.1c-0.4-0.2-1.8-2.1-2.3-1.4c-0.4,0-0.6,2.8-1.5,4.6
					c-1.2,2.3-3,4.4-3,4.4s-0.1-0.6-0.5-1.2c-0.5-0.7-1.2-2-1.5-1.4c-0.2,0.7-1.1,2-2.3,3.1c-1.1,1.1-2.5,1.9-2.5,1.9
					s-1-1.7-0.8-2.4c0.3-0.7-0.6-0.5-0.6-0.5s-0.5,0-0.9,0.4c-0.4,0.4-0.6,0.7-0.6,0.7s-1.6-1.9-2.6-2.9c-1-1-1.4-1-1.9-0.8
					c-1.7,1.2-1.4,1.8-3.5,3c-2.4,1.3-3.8,6.1-3.8,6.1s-0.6-0.4-1.2-0.6c-0.5-0.1-0.9-0.1-1.4-0.1c-1.6,0.3-0.4,3.3-1,5.3
					c-0.9,3-2.2,5.5-2.2,5.5s-1.7-1.6-2.8-1.1c-0.2,1.1-0.5,2.6-1.1,3.9c-0.9,2.1-2.1,3.8-2.1,3.8c-1.4,0.1-3.3-0.9-5-2.3
					c-1.7-1.4-2-3.8-3.4-3.4c-0.2,3.6-3,8.5-3,8.5s-1.2-0.6-2.1,0.3c-0.2,1.1,0.5,1.4,0.5,4c0,2.3-0.1,4.3-0.1,4.3s-1.3-1.1-2.7,0
					c2,4.3,0.8,10,0.8,10s-1.7-0.9-3.7-0.3c-0.8,1.8,0.8,4.5,1.5,7.1c0.6,2.3,0.4,4.7,0.4,4.7s-1.7,0.4-2.5,1.5
					c2,14,27.4,33.6,31.2,37c1.5,1.4,1.5,1.3,2.2,2.7c1.1,3.5-4.3,7.2-4.5,7.3c0,0-7.1,4.3-28.5,4.3h-16.5l-42.2,55.1v-130.6
					L29.5-402v206.7h35.7V-259l39.1,63.7h47.8l-56.1-85l43.3-51.7c8.5-9.5,19-14.3,22.8-16.7c14.5-8.9,15.9-20.3,15.9-20.3
					s1.3-1.1,1.6-0.3c0.3,0.7,0.7,0.6,0.7,0.6c0.2-0.2,1.8-1.5,1.6-3.2c0,0-0.6-2.8,0.1-3.1c0.6-0.3,1.1,0.2,1.8,0.1
					c0.7,0,1.4-0.3,1.4-0.3c0.1-0.2-0.4-2.1-0.1-2.6c0,0,0.5,0.1,0.6-1.4c0.1-1.5,1-2.2,1-2.2s2.2-0.1,3.3,0.4
					c1.1,0.5,1.2,0.3,1.2,0.3c0.5,0,0.5-1.8,0.9-2.5c0.9-1.4,0.6-2.1,2.3-3.2c2.3-1.5,3.7-2.7,3.7-2.7s1.4,0.3,2.2,1
					c0.8,0.7,2.6,1,2.6,1c0,0,1.2-2.3,3.1-3.5c1.9-1.2,4-1.1,4-1.1s0.2,0,0.7,0.7c0.4,0.7,2.3,1.7,2.3,1.7s1-1.5,4.3-2.3
					c3.3-0.7,5.2-0.9,5.5-0.5c0.2,0.3,0.1,3.9-0.4,5.8c-0.4,1.5,0.7,2.9,0.7,2.9c0,0,0.3-0.3,0.6-0.4c0.3-0.1,0.8-0.3,0.9-0.3
					c0.2,0-0.1,0.6,0.1,0.9c0.2,0.3,0.4,0.7,0.4,0.7s0.2,0.3,1.4-0.5c1.2-0.7,4.7-1.6,5.1-1.6c0.3,0-0.7,1.2-0.1,1.4
					c0.6,0.3,1.6,1.4,1.6,1.4c0.9,0,2.2-0.3,4.5-1.6c2.2-1.3,3.7-1.5,4-1.6c0.3,0-0.4,1.4,0.2,1.7c0.6,0.3,1.8,0.2,2,0.3
					c0.2,0-0.2,0.9,0,0.9c0.2,0-0.2,0.2,0,0.5c0.2,0.2-0.2,1.1,0.5,1.8c0.6,0.7,5.8-0.5,5.8-0.5c1.3,2.8,4.3,0,6-1.2
					c-0.1-0.3-0.1-1.4,1.1-2.1c3.3-2,5.5-4.5,4.1-4.1c-1.3,0.4-1.4-0.9-1.4-0.9c1.2-1.2,5.2-6.2,3.5-6.7c-2.9,1.1-4.2,0.8-4.2,0.8
					s1.8-0.5,0.9-3.2c-0.1-0.3-4.9-0.3-3.2-1.9c1.1-1,2.8-3.3,2.3-3.2c-1.3,0.4-1.4-1.1-1.4-1.1s1.7-0.1,3.6-1.6
					C263.3-407.3,265.1-409.6,264-409.6"/>
			</g>
			<g id="g28" transform="translate(414.9458,494.4229)">
				<path id="path30" inkscape:connector-curvature="0" class="st1" d="M32.5-398.3c-21.7,0-49.2,1.8-65.2,1.8v206.1H6.3v-66.2h0
					v-28.1c0,0,0,0,0,0v-85.4c4.5,0,12.1-0.3,19.1-0.3c28.4,0,42.2,12.6,42.2,44.6c0,37.8-23.9,41.7-39,42.1l-13.4,27.6
					c3.2,0.1,6.5,0.2,10.5,0.2c11,0,39.4,0,58.8-16.5c12.7-10.9,24.2-28.8,24.2-55.9c0-20.7-6.5-38.7-16.6-49.9
					C75.2-397.2,51.3-398.3,32.5-398.3"/>
			</g>
			<g id="g32" transform="translate(273.6797,354.0625)">
				<path id="path34" inkscape:connector-curvature="0" class="st1" d="M-14.6-70.8c-34.6,0-65.5-31.4-65.5-85
					c0-41.5,20-79.1,60.4-79.1c34.3,0,65.2,31.4,65.2,85.6C45.5-87.7,8-70.8-14.6-70.8 M55.5-235.5c-24.6-23.2-59.2-24.8-66.1-24.8
					c-25.5,0-51.2,4.3-76.4,27.1c-20.9,19-34.9,44.8-34.9,81.7c0,49,27.7,106.6,101,106.6c54.6,0,107.8-35.3,107.8-109.5
					C86.9-199.6,67.5-224.4,55.5-235.5"/>
			</g>
			<g id="g36" transform="translate(128.3047,494.4229)">
				<path id="path38" inkscape:connector-curvature="0" class="st1" d="M-63.1-398.3c-21.7,0-49.2,1.8-65.2,1.8v206.1h39.1v-64.2
					l0,0.1l0-35.7h0v-79.9c4.5,0,12.1-0.3,19.1-0.3c28.4,0,42.2,12.6,42.2,44.6c0,37.8-23.9,41.7-39,42.1l-13.4,27.6
					c3.2,0.1,6.5,0.2,10.5,0.2c11,0,39.4,0,58.8-16.5c12.7-10.9,24.2-28.8,24.2-55.9c0-20.7-6.5-38.7-16.6-49.9
					C-20.3-397.2-44.2-398.3-63.1-398.3"/>
			</g>
			<g id="g40" transform="translate(922.2607,449.8022)">
				<path id="path42" inkscape:connector-curvature="0" class="st1" d="M201.6-294.1H160l-42.2,55.1v-130.6L82-352.5v206.7h35.7
					v-63.7l39.1,63.7h47.8l-56.1-85L201.6-294.1z"/>
			</g>
			<g id="g44" transform="translate(1035.5234,338.5547)">
				<path id="path46" inkscape:connector-curvature="0" class="st1" d="M239.3-34.6h36.3v-148.3l-36.3,18.3V-34.6z"/>
			</g>
			<g id="g48" transform="translate(787.2861,452.7002)">
				<path id="path50" inkscape:connector-curvature="0" class="st1" d="M156.6-300.9c-17.1,0-34,10.2-48.4,21.8l0.6-17.9l-36.3,18
					v130.3h36.3v-101.9c4.8-4.6,17.4-15.5,31.5-15.5c16,0,16,12.7,16,36.6v80.8h36v-91c0-17.9,0-31.6-5.6-42.2
					C182.5-290,173.2-300.9,156.6-300.9"/>
			</g>
			<g id="g52" transform="translate(606.1699,479.3955)">
				<path id="path54" inkscape:connector-curvature="0" class="st1" d="M96.2-363.2c-16.9-19-40.8-20-59.6-20
					c-21.6,0-49.2,1.8-65.2,1.8v206.1h39.1v-64.2l0,0.1l0-35.7h0v-79.9c4.5,0,12.1-0.3,19.1-0.3c28.4,0,42.2,12.6,42.2,44.6
					c0,37.8-24,41.7-39,42.1l-13.4,27.6c3.2,0.1,6.5,0.2,10.5,0.2c11,0,39.4,0,58.8-16.5c12.7-10.9,24.2-28.8,24.2-55.9
					C112.8-334,106.4-352,96.2-363.2"/>
			</g>
			<g id="g56" transform="translate(671.0234,363.3359)">
				<path id="path58" inkscape:connector-curvature="0" class="st1" d="M117.8-92.4c-11.8,3.9-16.3,5.3-24.5,5.3
					c-11.3,0-14.6-4.6-14.6-16.5c0-11.9,2.5-13.7,11.2-16.2c2.3-0.7,13.8-3.5,27.8-6V-92.4z M158.9-87.1c-6.5,0-6.8-4.6-6.5-13
					l0.8-53.1c0.3-15.5,0.3-25.3-3.9-36.6c-3.7-9.5-15.5-21.8-41.3-21.8c-10.8,0-31.9,2.6-50.5,14.8l10.7,26.5
					c5.7-5.7,15.1-12.1,30.2-12.1c3.4,0,11,0.4,15.7,5.3c3.7,3.9,3.7,7.7,3.7,28.8c-61.3,9.5-73.4,16.5-73.4,49.6
					c0,38.7,22.8,42.9,30.9,42.9c16,0,31.8-7.4,45.6-14.1c2.2,5.3,6.2,14.1,19.1,14.1c16.6,0,34-11.6,34.9-11.9c0,0,0.1-0.1,0.1-0.1
					l-8.2-20.4C164.3-87.6,161.6-87.1,158.9-87.1"/>
			</g>
		</g>
	</g>
</g>
</svg>
