<?xml version="1.0" encoding="UTF-8" standalone="no"?>
<svg
   xmlns:dc="http://purl.org/dc/elements/1.1/"
   xmlns:cc="http://creativecommons.org/ns#"
   xmlns:rdf="http://www.w3.org/1999/02/22-rdf-syntax-ns#"
   xmlns:svg="http://www.w3.org/2000/svg"
   xmlns="http://www.w3.org/2000/svg"
   version="1.1"
   id="svg2"
   viewBox="0 0 800.00003 279.90755"
   height="78.996132mm"
   width="225.77779mm">
  <defs
     id="defs4">
    <clipPath
       clipPathUnits="userSpaceOnUse"
       id="clipPath3407">
      <path
         d="m 0,746.502 1671.23,0 L 1671.23,0 0,0 0,746.502 Z"
         id="path3409" />
    </clipPath>
  </defs>
  <metadata
     id="metadata7">
    <rdf:RDF>
      <cc:Work
         rdf:about="">
        <dc:format>image/svg+xml</dc:format>
        <dc:type
           rdf:resource="http://purl.org/dc/dcmitype/StillImage" />
        <dc:title></dc:title>
      </cc:Work>
    </rdf:RDF>
  </metadata>
  <g
     transform="translate(27.952761,-386.22732)"
     id="layer1">
    <g
       transform="matrix(1.0821754,0,0,1.0821754,-87.660655,381.76731)"
       id="g3347" />
    <g
       id="g3401"
       transform="matrix(0.56243832,0,0,-0.56243832,-97.929537,736.11154)">
      <g
         id="g3403">
        <g
           id="g3405"
           clip-path="url(#clipPath3407)">
          <g
             id="g3411"
             transform="translate(624.0966,350.0558)">
            <path
               d="m 0,0 c 3.585,4.414 5.384,10.771 5.384,19.054 l 0,69.996 c 0,16.566 -6.769,24.849 -20.294,24.849 l -25.264,0 0,-120.524 24.849,0 C -8.698,-6.625 -3.592,-4.42 0,0 m -6.627,168.155 c 22.366,0 39.618,-6.699 51.772,-20.086 12.147,-13.396 18.223,-31.549 18.223,-54.466 l 0,-76.207 c 0,-23.749 -6.005,-42.731 -18.016,-56.947 -12.012,-14.224 -29.478,-21.33 -52.394,-21.33 l -33.132,0 0,-60.884 -58.399,0 0,289.92 91.946,0 z"
               style="fill:#33b65b;fill-opacity:1;fill-rule:nonzero;stroke:none"
               id="path3413" />
          </g>
          <g
             id="g3415"
             transform="translate(783.728,458.5704)">
            <path
               d="m 0,0 -0.828,0 -21.122,-119.696 42.658,0 L 0,0 Z m 40.176,59.641 58.812,-289.92 -58.812,0 -10.356,58.811 -60.468,0 -10.354,-58.811 -57.984,0 59.64,289.92 79.522,0 z"
               style="fill:#33b65b;fill-opacity:1;fill-rule:nonzero;stroke:none"
               id="path3417" />
          </g>
          <g
             id="g3419"
             transform="translate(958.9199,518.2111)">
            <path
               d="m 0,0 55.914,-170.639 0.411,0 L 55.914,0 l 55.499,0 0,-289.92 -55.499,0 -59.641,176.438 -0.415,0 0.415,-176.438 -55.5,0 0,289.92 L 0,0 Z"
               style="fill:#33b65b;fill-opacity:1;fill-rule:nonzero;stroke:none"
               id="path3421" />
          </g>
          <g
             id="g3423"
             transform="translate(1157.0605,518.2111)">
            <path
               d="M 0,0 0,-168.566 4.142,-156.142 57.157,0 l 59.227,0 -51.773,-149.102 54.256,-140.818 -59.226,0 -36.446,96.086 L 0,-247.675 l 0,-42.245 -56.739,0 0,289.92 L 0,0 Z"
               style="fill:#33b65b;fill-opacity:1;fill-rule:nonzero;stroke:none"
               id="path3425" />
          </g>
          <g
             id="g3427"
             transform="translate(1349.6514,518.2111)">
            <path
               d="M 0,0 0,-168.566 4.142,-156.142 57.157,0 l 59.226,0 -51.772,-149.102 54.256,-140.818 -59.226,0 -36.447,96.086 L 0,-247.675 l 0,-42.245 -56.739,0 0,289.92 L 0,0 Z"
               style="fill:#33b65b;fill-opacity:1;fill-rule:nonzero;stroke:none"
               id="path3429" />
          </g>
          <path
             d="m 1546.795,228.291 -60.884,0 0,289.92 60.884,0 0,-289.92 z"
             style="fill:#33b65b;fill-opacity:1;fill-rule:nonzero;stroke:none"
             id="path3431" />
          <g
             id="g3433"
             transform="translate(267.6108,541.2706)">
            <path
               d="m 0,0 c 33.679,33.66 77.133,48.408 123.267,48.408 l 34.123,0 0,32.406 -34.299,0 C 68.3,80.814 16.824,62.707 -22.929,22.953 -62.928,-17.046 -80.792,-68.194 -80.792,-124.033 L -80.8,-207.8 c 0,-3.059 -0.238,-6.953 -0.726,-9.587 -1.159,-6.255 -3.734,-11.356 -7.922,-15.534 -3.751,-3.74 -8.331,-5.896 -11.786,-7.146 -2.987,-1.081 -6.808,-1.901 -10.901,-2.512 -9.058,-1.354 -31.059,-1.847 -31.059,-1.847 l 0,-100.514 29.803,0 c 37.96,0 72.839,11.549 98.926,37.592 26.088,26.048 37.54,59.397 37.54,95.341 l 0.008,87.975 c 0,27.102 8.602,52.54 28.506,72.386 20.014,19.951 45.423,28.586 72.072,28.586 l 4.658,0 -10e-4,-38.635 c -9.11,-0.609 -15.476,-1.47 -23.762,-4.09 -8.744,-2.765 -17.049,-7.347 -24.305,-14.552 -12.176,-12.095 -17.216,-27.645 -17.216,-43.695 l -0.008,-87.975 c 0,-46.996 -15.014,-90.233 -48.831,-124.032 -33.679,-33.66 -77.134,-48.408 -123.266,-48.408 l -34.124,0 0,-32.407 34.299,0 c 54.791,0 106.267,18.108 146.02,57.862 39.999,39.999 57.863,91.147 57.863,146.985 l 0.009,83.768 c 0,3.059 0.237,6.953 0.725,9.587 1.158,6.254 3.735,11.356 7.922,15.533 3.751,3.741 8.331,5.897 11.786,7.147 2.987,1.081 6.808,1.901 10.902,2.512 9.057,1.353 31.058,1.847 31.058,1.847 l 0,100.515 -29.803,0 c -37.96,0 -72.839,-11.55 -98.926,-37.594 -26.088,-26.047 -37.539,-59.396 -37.539,-95.34 l -0.009,-87.975 c 0,-27.102 -8.602,-52.541 -28.507,-72.387 -20.013,-19.95 -45.422,-28.586 -72.071,-28.586 l -4.658,0 0.001,39.444 c 9.11,0.609 16.049,1.759 23.763,4.09 8.778,2.654 17.047,6.539 24.303,13.744 12.177,12.095 17.217,27.645 17.217,43.695 l 0.008,87.974 C -48.831,-77.036 -33.817,-33.798 0,0"
               style="fill:#33b65b;fill-opacity:1;fill-rule:nonzero;stroke:none"
               id="path3435" />
          </g>
        </g>
      </g>
    </g>
  </g>
</svg>
