<?xml version="1.0" encoding="utf-8"?>
<!-- Generator: Adobe Illustrator 28.0.0, SVG Export Plug-In . SVG Version: 6.00 Build 0)  -->
<svg version="1.1"
	 id="svg2" xmlns:inkscape="http://www.inkscape.org/namespaces/inkscape" xmlns:svg="http://www.w3.org/2000/svg" xmlns:sodipodi="http://sodipodi.sourceforge.net/DTD/sodipodi-0.dtd" xmlns:rdf="http://www.w3.org/1999/02/22-rdf-syntax-ns#" xmlns:cc="http://creativecommons.org/ns#" xmlns:dc="http://purl.org/dc/elements/1.1/" inkscape:version="0.48.3.1 r9886"
	 xmlns="http://www.w3.org/2000/svg" xmlns:xlink="http://www.w3.org/1999/xlink" x="0px" y="0px" viewBox="0 0 744.1 137"
	 style="enable-background:new 0 0 744.1 137;" xml:space="preserve">
<style type="text/css">
	.st0{fill-rule:evenodd;clip-rule:evenodd;fill:#00ABCD;stroke:#00ABCD;stroke-miterlimit:10;}
</style>
<sodipodi:namedview  bordercolor="#666666" borderopacity="1" gridtolerance="10" guidetolerance="10" id="namedview4" inkscape:current-layer="g10" inkscape:cx="423.67332" inkscape:cy="-30.927564" inkscape:pageopacity="0" inkscape:pageshadow="2" inkscape:window-height="1513" inkscape:window-maximized="1" inkscape:window-width="2560" inkscape:window-x="0" inkscape:window-y="27" inkscape:zoom="1.7940585" objecttolerance="10" pagecolor="#ffffff" showgrid="false">
	</sodipodi:namedview>
<g id="layer1" transform="translate(0,-915.36255)" inkscape:groupmode="layer" inkscape:label="Layer">
</g>
<g id="g3275" transform="matrix(1.4124498,0,0,1.4124498,-207.11158,-33.449255)">
	<g id="g24" transform="matrix(1.8361659,0,0,1.8361659,185.25281,63.104032)">
		<path id="path26" inkscape:connector-curvature="0" class="st0" d="M5.3,4.5c-2,2.8-3.2,6-3.2,9.5H1.9c0-3.5-1.2-6.8-3.1-9.5h-5.9
			c2.9,2.3,4.7,5.8,4.7,9.5c0,3.8-1.8,7.3-4.7,9.5h18.3c-3-2.3-4.8-5.8-4.8-9.5c0-3.7,1.8-7.2,4.7-9.5L5.3,4.5"/>
	</g>
	<g id="g28" transform="matrix(1.8361659,0,0,1.8361659,163.64058,80.524652)">
		<path id="path30" inkscape:connector-curvature="0" class="st0" d="M2.3-16.8l0,0.2l-0.2,0C-3.7-16.6-8.6-11.3-8.6-5.2
			c0,3.1,1.2,6,3.4,8.3C-3,5.3-0.1,6.5,3.1,6.5c1.2,0,2.3-0.2,3.5-0.6c0-0.2,0.1-1.4,0.1-1.4c0-1.4-0.3-2.6-0.8-3.9
			C5,1.1,4.1,1.3,3.1,1.3c-1.7,0-3.4-0.7-4.6-1.9c-1.2-1.2-1.9-2.8-1.9-4.6c0-1.7,0.7-3.4,1.9-4.6c1.2-1.2,2.8-1.9,4.6-1.9
			c1.6,0,2.7,0.3,3.6,0.7c0,0,1.4,0.6,2.1,0.8C8.6-10.7,8-12.3,8-12.3c-0.3-1-0.7-2-0.7-3.6c0-1.7,0.7-3.4,1.9-4.6
			c1.2-1.2,2.8-1.9,4.6-1.9c1.7,0,3.4,0.7,4.6,1.9c1.2,1.2,1.9,2.9,1.9,4.6c0,1.6-0.3,2.6-0.7,3.6c0,0-0.6,1.4-0.8,2.1
			c0.6-0.2,2.1-0.8,2.1-0.8c1-0.4,2-0.7,3.7-0.7c1.7,0,3.4,0.7,4.6,1.9C30.3-8.5,31-6.9,31-5.2c0,1.7-0.7,3.3-1.9,4.6
			c-1.2,1.2-2.8,1.9-4.6,1.9c-1,0-1.9-0.2-2.8-0.6c-0.6,1.2-0.9,2.5-0.9,3.9c0,0,0.1,1.2,0.1,1.4c1.2,0.4,2.3,0.6,3.5,0.6
			c3.1,0,6.1-1.2,8.3-3.4C35,0.9,36.2-2,36.2-5.2c0-6.1-4.9-11.4-10.8-11.5l-0.2,0l0-0.2c-0.1-5.8-5.3-10.8-11.5-10.8
			C7.7-27.6,2.4-22.7,2.3-16.8"/>
	</g>
	<g id="g3249" transform="matrix(1.2026681,0,0,1.2026681,-44.979775,-5.0423109)">
		<g id="g52" transform="matrix(1.8361659,0,0,1.8361659,234.78209,34.2698)">
			<path id="path54" inkscape:connector-curvature="0" class="st0" d="M10.3,31.2c-3.6,0-6.7-1.5-8.7-4l2.6-2.6
				c1.7,1.8,4.1,2.9,6.4,2.9c3.4,0,5.1-1.2,5.1-3.6c0-1.9-1.4-2.8-5.5-4.1c-5.2-1.5-7.7-2.8-7.7-7.2c0-4.2,3.6-6.8,8.1-6.8
				c3.3,0,5.9,1.2,8,3.3L16,11.8c-1.5-1.6-3.3-2.4-5.7-2.4c-2.9,0-4.1,1.4-4.1,3.1c0,1.7,1.1,2.6,5.4,3.8c4.8,1.5,7.9,3,7.9,7.4
				C19.4,28.2,16.6,31.2,10.3,31.2"/>
		</g>
		<g id="g56" transform="matrix(1.8361659,0,0,1.8361659,268.46674,34.836801)">
			<path id="path58" inkscape:connector-curvature="0" class="st0" d="M14.9,30.5v-1.8c-1.3,1.3-3.1,2.2-5.1,2.2
				c-3,0-6.4-1.7-6.4-6.2c0-4.1,3.2-6,7.3-6c1.7,0,3.1,0.2,4.1,0.7V18c0-2-1.2-3.1-3.5-3.1c-1.9,0-3.4,0.4-4.8,1.2l-1.4-2.7
				c1.8-1.1,3.7-1.7,6.3-1.7c4.1,0,6.9,2,6.9,6.2v12.6H14.9z M8,9.8c-1.3,0-2.4-1.1-2.4-2.4C5.6,6.1,6.7,5,8,5
				c1.3,0,2.4,1.1,2.4,2.4C10.3,8.7,9.2,9.8,8,9.8 M14.9,22.6c-1-0.5-2.2-0.8-4.2-0.8c-2.3,0-3.8,1.1-3.8,2.7c0,1.8,1.2,3.1,3.5,3.1
				c1.9,0,3.6-1.2,4.5-2.4C14.9,25.3,14.9,22.6,14.9,22.6z M14.8,9.8c-1.3,0-2.4-1.1-2.4-2.4c0-1.3,1.1-2.4,2.4-2.4
				c1.3,0,2.4,1.1,2.4,2.4C17.2,8.7,16.1,9.8,14.8,9.8"/>
		</g>
		<g id="g60" transform="matrix(1.8361659,0,0,1.8361659,294.21052,34.836801)">
			<path id="path62" inkscape:connector-curvature="0" class="st0" d="M18.4,30.5v-1.8c-1.3,1.3-3.1,2.2-5.1,2.2
				c-3,0-6.4-1.7-6.4-6.2c0-4.1,3.2-6,7.3-6c1.7,0,3.1,0.2,4.1,0.7V18c0-2-1.2-3.1-3.5-3.1c-1.9,0-3.4,0.4-4.8,1.2l-1.4-2.7
				c1.8-1.1,3.7-1.7,6.3-1.7c4.1,0,6.9,2,6.9,6.2v12.6H18.4z M11.5,9.8c-1.3,0-2.4-1.1-2.4-2.4c0-1.3,1.1-2.4,2.4-2.4
				c1.3,0,2.4,1.1,2.4,2.4C13.8,8.7,12.7,9.8,11.5,9.8 M18.4,22.6c-1-0.5-2.2-0.8-4.2-0.8c-2.3,0-3.8,1.1-3.8,2.7
				c0,1.8,1.2,3.1,3.5,3.1c1.9,0,3.6-1.2,4.5-2.4C18.4,25.3,18.4,22.6,18.4,22.6z M18.3,9.8c-1.3,0-2.4-1.1-2.4-2.4
				C15.9,6.1,17,5,18.3,5c1.3,0,2.4,1.1,2.4,2.4C20.7,8.7,19.6,9.8,18.3,9.8"/>
		</g>
		<g id="g64" transform="matrix(1.8361659,0,0,1.8361659,313.24587,34.2698)">
			<path id="path66" inkscape:connector-curvature="0" class="st0" d="M21,31.2c-2.5,0-5.2-1-7.1-2.4l1.7-2.7
				c1.7,1.2,3.7,1.8,5.4,1.8c2.3,0,3.4-0.7,3.4-2c0-1.4-1.6-2.1-4.3-3.1c-4-1.5-5.4-2.9-5.4-5.8c0-3.3,2.6-5,6.3-5
				c2.3,0,4.6,0.8,6.3,2l-1.6,2.8c-1.5-1.1-3-1.6-4.8-1.6c-1.8,0-2.5,0.7-2.5,1.7c0,0.9,0.6,1.6,3.4,2.7c4.1,1.6,6.2,2.7,6.2,6.2
				C27.9,29.8,24.6,31.2,21,31.2"/>
		</g>
		<g id="g68" transform="matrix(1.8361659,0,0,1.8361659,340.63522,35.508108)">
			<path id="path70" inkscape:connector-curvature="0" class="st0" d="M24.7,29.7c-0.9,0.5-2.1,0.8-3.5,0.8c-2.6,0-4.1-1.6-4.1-4.9
				V15h-2.6v-3.3H17V6.4l3.5-1.9v7.2h4.6V15h-4.6v10c0,1.7,0.6,2.2,1.9,2.2c0.9,0,2-0.4,2.7-0.7L24.7,29.7"/>
		</g>
		<g id="g72" transform="matrix(1.8361659,0,0,1.8361659,356.00907,34.2698)">
			<path id="path74" inkscape:connector-curvature="0" class="st0" d="M26.8,31.2c-4.6,0-8.1-3.8-8.1-9.6c0-6,3.6-9.6,8.2-9.6
				c4.7,0,8.2,3.8,8.2,9.5C35.1,27.6,31.5,31.2,26.8,31.2 M23.4,10.3c-1.3,0-2.4-1.1-2.4-2.4c0-1.3,1.1-2.4,2.4-2.4
				c1.3,0,2.4,1.1,2.4,2.4C25.7,9.2,24.6,10.3,23.4,10.3 M26.7,15.4c-2.7,0-4.4,2.4-4.4,6.1c0,4,1.9,6.2,4.6,6.2
				c2.7,0,4.5-2.8,4.5-6.1C31.5,17.8,29.7,15.4,26.7,15.4 M30.2,10.3c-1.3,0-2.4-1.1-2.4-2.4c0-1.3,1.1-2.4,2.4-2.4
				c1.3,0,2.4,1.1,2.4,2.4C32.6,9.2,31.5,10.3,30.2,10.3"/>
		</g>
		<g id="g76" transform="matrix(1.8361659,0,0,1.8361659,384.50765,34.2698)">
			<path id="path78" inkscape:connector-curvature="0" class="st0" d="M30.7,31.2c-1.9,0-3.6-1-4.6-2.1v6.6l-3.6,1.9V12.4H26v1.8
				c1.3-1.2,2.9-2.1,4.8-2.1c4,0,7.1,2.9,7.1,9.9C37.9,28.2,34.5,31.2,30.7,31.2 M30.2,15.3c-1.7,0-3.2,1.2-4.2,2.4v7.8
				c0.8,1.1,2.5,2.4,4.3,2.4c2.6,0,4-2,4-5.9C34.3,17.4,32.8,15.3,30.2,15.3"/>
		</g>
		<g id="g80" transform="matrix(1.8361659,0,0,1.8361659,414.94025,34.836801)">
			<path id="path82" inkscape:connector-curvature="0" class="st0" d="M34.8,30.5v-1.8c-1.3,1.3-3.1,2.2-5.1,2.2
				c-3,0-6.4-1.7-6.4-6.2c0-4.1,3.2-6,7.3-6c1.7,0,3.1,0.2,4.1,0.7V18c0-2-1.2-3.1-3.5-3.1c-1.9,0-3.4,0.4-4.8,1.2l-1.4-2.7
				c1.8-1.1,3.7-1.7,6.3-1.7c4.1,0,6.9,2,6.9,6.2v12.6H34.8z M34.8,22.6c-1-0.5-2.2-0.8-4.2-0.8c-2.3,0-3.8,1.1-3.8,2.7
				c0,1.8,1.2,3.1,3.5,3.1c1.9,0,3.6-1.2,4.5-2.4V22.6"/>
		</g>
		<g id="g84" transform="matrix(1.8361659,0,0,1.8361659,441.9633,34.836801)">
			<path id="path86" inkscape:connector-curvature="0" class="st0" d="M38.5,30.5V20.1c0-3.7-1.4-5.1-3.8-5.1
				c-2.4,0-3.8,1.7-3.8,4.7v10.8h-3.6V12.1h3.6v1.8c0.9-1.3,2.7-2.1,4.6-2.1c4.3,0,6.6,2.8,6.6,8.3v10.6H38.5"/>
		</g>
		<g id="g88" transform="matrix(1.8361659,0,0,1.8361659,468.03666,34.836801)">
			<path id="path90" inkscape:connector-curvature="0" class="st0" d="M42,30.5L38,21.3l-2.8,3.7v5.4h-3.6V6.8l3.6-1.9v11.6
				c0,1.1,0,3,0,3.9c0.5-0.7,1.4-2.1,2-3l3.8-5.4h4.1l-4.7,6.2L46,30.5H42"/>
		</g>
		<g id="g92" transform="matrix(1.8361659,0,0,1.8361659,492.60989,34.836801)">
			<path id="path94" inkscape:connector-curvature="0" class="st0" d="M45.4,30.5l-4.1-9.2l-2.8,3.7v5.4h-3.6V6.8l3.6-1.9v11.6
				c0,1.1,0,3,0,3.9c0.5-0.7,1.4-2.1,2-3l3.8-5.4h4.1l-4.7,6.2l5.5,12.3H45.4"/>
		</g>
		<g id="g96" transform="matrix(1.8361659,0,0,1.8361659,504.56186,65.428982)">
			<path id="path98" inkscape:connector-curvature="0" class="st0" d="M47-7c-1.3,0-2.4-1.1-2.4-2.3c0-1.3,1.1-2.4,2.4-2.4
				c1.3,0,2.3,1.1,2.3,2.4C49.3-8,48.3-7,47-7 M48.8,13.8h-3.6V-4.6h3.6V13.8z"/>
		</g>
	</g>
</g>
</svg>
