<?xml version="1.0" encoding="UTF-8" standalone="no"?>
<!-- Created with Inkscape (http://www.inkscape.org/) -->

<svg
   xmlns:dc="http://purl.org/dc/elements/1.1/"
   xmlns:cc="http://creativecommons.org/ns#"
   xmlns:rdf="http://www.w3.org/1999/02/22-rdf-syntax-ns#"
   xmlns:svg="http://www.w3.org/2000/svg"
   xmlns="http://www.w3.org/2000/svg"
   xmlns:sodipodi="http://sodipodi.sourceforge.net/DTD/sodipodi-0.dtd"
   xmlns:inkscape="http://www.inkscape.org/namespaces/inkscape"
   version="1.1"
   id="svg2"
   xml:space="preserve"
   width="3557.0974"
   height="533.33331"
   viewBox="0 0 3557.0974 533.33331"
   sodipodi:docname="Yle Areena logo 2017.svg"
   inkscape:version="0.92.1 r15371"><metadata
     id="metadata8"><rdf:RDF><cc:Work
         rdf:about=""><dc:format>image/svg+xml</dc:format><dc:type
           rdf:resource="http://purl.org/dc/dcmitype/StillImage" /><dc:title></dc:title></cc:Work></rdf:RDF></metadata><defs
     id="defs6"><clipPath
       clipPathUnits="userSpaceOnUse"
       id="clipPath22"><path
         d="M 0,400 H 2670 V 0 H 0 Z"
         id="path20"
         inkscape:connector-curvature="0" /></clipPath><clipPath
       clipPathUnits="userSpaceOnUse"
       id="clipPath50"><path
         d="M 0,0 H 400.008 V 400 H 0 Z"
         id="path48"
         inkscape:connector-curvature="0" /></clipPath></defs><sodipodi:namedview
     pagecolor="#ffffff"
     bordercolor="#666666"
     borderopacity="1"
     objecttolerance="10"
     gridtolerance="10"
     guidetolerance="10"
     inkscape:pageopacity="0"
     inkscape:pageshadow="2"
     inkscape:window-width="1366"
     inkscape:window-height="705"
     id="namedview4"
     showgrid="false"
     inkscape:zoom="0.10533708"
     inkscape:cx="2805.5556"
     inkscape:cy="183.26134"
     inkscape:window-x="-8"
     inkscape:window-y="-8"
     inkscape:window-maximized="1"
     inkscape:current-layer="g10" /><g
     id="g10"
     inkscape:groupmode="layer"
     inkscape:label="yle-areena-black"
     transform="matrix(1.3333333,0,0,-1.3333333,-0.00453333,533.33332)"><g
       id="g12"
       transform="translate(591.5538,395.5725)"><path
         d="m 0,0 -142.735,-395.572 h 80.774 l 36.511,104.562 h 135.547 l 37.619,-104.562 h 87.971 L 95.712,0 Z M 44.262,-75.792 93.501,-229.598 H -7.746 Z"
         style="fill:#000000;fill-opacity:1;fill-rule:nonzero;stroke:none"
         id="path14"
         inkscape:connector-curvature="0" /></g><g
       id="g16"><g
         id="g18"
         clip-path="url(#clipPath22)"><g
           id="g24"
           transform="translate(948.3845,197.5094)"><path
             d="m 0,0 h 89.074 c 38.173,16.047 55.877,36.516 55.877,78.008 0,43.155 -30.98,60.305 -81.881,60.305 -32.089,0 -63.07,-5.53 -63.07,-5.53 z M 149.928,-197.509 60.858,-62.516 H 0 V -197.509 H -78.563 V 188.66 c 0,0 50.347,13.831 140.525,13.831 103.459,0 165.42,-35.962 165.42,-116.736 0,-82.436 -50.896,-117.844 -87.412,-133.886 l 104.013,-149.378 z"
             style="fill:#000000;fill-opacity:1;fill-rule:nonzero;stroke:none"
             id="path26"
             inkscape:connector-curvature="0" /></g><g
           id="g28"
           transform="translate(1238.8215)"><path
             d="M 0,0 V 394.47 H 269.433 V 327.527 H 79.117 V 228.49 H 243.429 V 164.317 H 79.117 V 66.943 H 274.41 V 0 Z"
             style="fill:#000000;fill-opacity:1;fill-rule:nonzero;stroke:none"
             id="path30"
             inkscape:connector-curvature="0" /></g><g
           id="g32"
           transform="translate(1571.864)"><path
             d="M 0,0 V 394.47 H 269.429 V 327.527 H 79.116 V 228.49 H 243.434 V 164.317 H 79.116 V 66.943 H 274.41 V 0 Z"
             style="fill:#000000;fill-opacity:1;fill-rule:nonzero;stroke:none"
             id="path34"
             inkscape:connector-curvature="0" /></g><g
           id="g36"
           transform="translate(1982.9149)"><path
             d="M 0,0 H -78.004 V 394.47 H -4.971 L 185.895,144.951 V 394.47 h 78.562 V 0 H 205.261 L 0,262.241 Z"
             style="fill:#000000;fill-opacity:1;fill-rule:nonzero;stroke:none"
             id="path38"
             inkscape:connector-curvature="0" /></g><g
           id="g40"
           transform="translate(2476.4016,319.7804)"><path
             d="M 0,0 -51.999,-153.806 H 49.244 Z M 65.844,-215.218 H -69.708 l -36.516,-104.562 h -80.769 L -44.253,75.792 H 51.46 L 191.425,-319.78 h -87.966 z"
             style="fill:#000000;fill-opacity:1;fill-rule:nonzero;stroke:none"
             id="path42"
             inkscape:connector-curvature="0" /></g></g></g><g
       id="g44"><g
         id="g46"
         clip-path="url(#clipPath50)"><g
           id="g52"
           transform="translate(400.0044,381.4501)"><path
             d="m 0,0 v -362.887 c 0,-9.908 -8.565,-18.563 -17.966,-18.563 h -363.255 c -10.207,0 -18.78,8.655 -18.78,18.563 V 0 c 0,10.299 8.573,18.55 18.78,18.55 H -17.966 C -8.565,18.55 0,10.299 0,0"
             style="fill:#000000;fill-opacity:1;fill-rule:nonzero;stroke:none"
             id="path54"
             inkscape:connector-curvature="0" /></g><g
           id="g56"
           transform="translate(163.7911,248.1521)"><path
             d="m 0,0 c 0,4.941 -3.205,8.127 -8.141,8.127 h -6.445 c -5.585,0 -8.094,-2.781 -9.983,-11.078 L -42.81,-82.208 h -4.061 c -6.151,0 -8.725,1.547 -10.904,10.227 l -18.223,69.094 -0.202,0.756 c -1.391,5.281 -2.704,10.258 -8.997,10.258 h -6.828 c -5.497,0 -8.522,-2.882 -8.522,-8.127 0,-3.189 0.866,-7.933 2.725,-14.981 l 19.366,-69.069 c 3.472,-13.034 10.544,-18.605 23.629,-18.605 h 7.767 c -0.82,-4.336 -2.574,-13.269 -3.669,-16.662 -3.551,-11.056 -9.053,-13.377 -18.528,-13.377 -7.823,0 -12.956,0.604 -16.704,1.041 -2.252,0.258 -4.047,0.473 -5.696,0.473 -4.451,0 -6.994,-2.688 -6.994,-7.375 v -4.553 c 0,-5.206 2.675,-6.801 5.379,-7.951 4.612,-2.092 10.405,-3.224 27.81,-3.224 17.458,0 30.415,9.356 34.641,25.057 7.671,28.482 28.27,114.976 28.473,115.818 0,0 2.348,9.15 2.348,13.408"
             style="fill:#ffffff;fill-opacity:1;fill-rule:nonzero;stroke:none"
             id="path58"
             inkscape:connector-curvature="0" /></g><g
           id="g60"
           transform="translate(215.4277,296.7362)"><path
             d="m 0,0 c 0,8.929 -0.92,17.629 -11.939,17.629 h -16.317 c -2.946,0 -10.793,0 -10.793,-7.753 v -7.22 c 0,-3.037 1.501,-8.125 11.543,-8.125 h 4.015 v -135.742 c 0,-7.249 1.478,-11.17 9.268,-11.17 h 5.317 c 7.391,0 8.906,4.462 8.906,11.17 z"
             style="fill:#ffffff;fill-opacity:1;fill-rule:nonzero;stroke:none"
             id="path62"
             inkscape:connector-curvature="0" /></g><g
           id="g64"
           transform="translate(316.6877,212.1161)"><path
             d="m 0,0 -49.486,-0.041 c 0.746,20.386 8.501,29.11 25.53,29.121 C -7.182,29.084 -0.497,19.158 0,0 m 21.594,-4.923 c 0,22.171 -5.097,52.134 -45.959,52.134 -34.241,0 -49.51,-18.675 -49.51,-60.528 0,-40.793 14.246,-55.958 52.549,-55.958 17.091,0 28.315,2.339 32.694,4.345 2.748,1.166 5.423,2.734 5.423,7.974 v 4.162 c 0,4.697 -2.545,7.377 -6.992,7.377 -1.561,0 -3.155,-0.314 -5.167,-0.709 -3.935,-0.774 -9.876,-1.948 -21.409,-1.948 -28.741,0 -32.336,5.186 -33.16,28.911 H 4.348 c 13.079,0 17.246,5.689 17.246,14.24"
             style="fill:#ffffff;fill-opacity:1;fill-rule:nonzero;stroke:none"
             id="path66"
             inkscape:connector-curvature="0" /></g></g></g></g></svg>